<svg height="17.361" viewBox="0 0 13.204 17.361" width="13.204" xmlns="http://www.w3.org/2000/svg"><g fill="#b6b7b7"><path d="m108.03 8.49c1.93 0 3.5-1.9 3.5-4.245s-.519-4.245-3.5-4.245-3.5 1.9-3.5 4.245 1.57 4.245 3.5 4.245z" transform="translate(-101.428)"/><path d="m41.9 300.445c0-.143 0-.04 0 0z" transform="translate(-41.895 -285.473)"/><path d="m308.085 301.616c0-.039 0-.272 0 0z" transform="translate(-294.881 -286.532)"/><path d="m55.1 183.725c-.065-4.084-.6-5.248-4.68-5.985a2.867 2.867 0 0 1 -3.828 0c-4.037.729-4.6 1.875-4.678 5.852-.006.325-.009.342-.01.3v.429s.972 1.959 6.6 1.959 6.6-1.959 6.6-1.959c0-.146 0-.248 0-.317a2.631 2.631 0 0 1 -.004-.279z" transform="translate(-41.907 -168.924)"/></g></svg>