<svg xmlns="http://www.w3.org/2000/svg" width="13.204" height="17.361" viewBox="275 751.08 13.204 17.361"><g data-name="man-user"><path d="M281.602 759.57c1.93 0 3.495-1.9 3.495-4.245 0-2.344-.514-4.245-3.495-4.245s-3.495 1.9-3.495 4.245 1.565 4.245 3.495 4.245Z" fill="#b6b7b7" fill-rule="evenodd" data-name="Path 4253"/><path d="M275 766.052c0-.143 0-.04 0 0Z" fill="#b6b7b7" fill-rule="evenodd" data-name="Path 4254"/><path d="M288.203 766.164c.002-.04.001-.272 0 0Z" fill="#b6b7b7" fill-rule="evenodd" data-name="Path 4255"/><path d="M288.196 765.88c-.065-4.083-.598-5.247-4.68-5.984 0 0-.575.732-1.914.732-1.34 0-1.914-.732-1.914-.732-4.037.729-4.603 1.875-4.677 5.852-.007.325-.01.342-.01.304v.43s.972 1.958 6.601 1.958c5.63 0 6.601-1.959 6.601-1.959v-.317a2.631 2.631 0 0 1-.007-.283Z" fill="#b6b7b7" fill-rule="evenodd" data-name="Path 4256"/></g></svg>