<svg xmlns="http://www.w3.org/2000/svg" width="14" height="14" viewBox="24 753 14 14"><g data-name="Group 6847"><path d="M25 753h4a1 1 0 0 1 1 1v4a1 1 0 0 1-1 1h-4a1 1 0 0 1-1-1v-4a1 1 0 0 1 1-1z" fill="#fc6011" fill-rule="evenodd" data-name="Rectangle 17318"/><path d="M25 761h4a1 1 0 0 1 1 1v4a1 1 0 0 1-1 1h-4a1 1 0 0 1-1-1v-4a1 1 0 0 1 1-1z" fill="#fc6011" fill-rule="evenodd" data-name="Rectangle 17321"/><path d="M33 753h4a1 1 0 0 1 1 1v4a1 1 0 0 1-1 1h-4a1 1 0 0 1-1-1v-4a1 1 0 0 1 1-1z" fill="#fc6011" fill-rule="evenodd" data-name="Rectangle 17319"/><path d="M33 761h4a1 1 0 0 1 1 1v4a1 1 0 0 1-1 1h-4a1 1 0 0 1-1-1v-4a1 1 0 0 1 1-1z" fill="#fc6011" fill-rule="evenodd" data-name="Rectangle 17320"/></g></svg>