<svg xmlns="http://www.w3.org/2000/svg" width="15.704" height="15.805" viewBox="334 751 15.704 15.805"><g data-name="Group 6814"><path d="M348.931 751h-14.16a.772.772 0 0 0-.77.772v.713a.77.77 0 0 0 .77.772h14.16a.77.77 0 0 0 .773-.772v-.713a.772.772 0 0 0-.773-.772Z" fill="#b6b7b7" fill-rule="evenodd" data-name="Path 2718"/><path d="M348.931 764.548h-14.16a.772.772 0 0 0-.77.772v.713a.77.77 0 0 0 .77.772h14.16a.77.77 0 0 0 .773-.772v-.713a.772.772 0 0 0-.773-.772Z" fill="#b6b7b7" fill-rule="evenodd" data-name="Path 2719"/><path d="M349.704 760.805a.772.772 0 0 0-.773-.773h-8.8a.77.77 0 0 0-.772.773v.712a.769.769 0 0 0 .477.713.77.77 0 0 0 .295.059h8.8a.772.772 0 0 0 .773-.772v-.712Z" fill="#b6b7b7" fill-rule="evenodd" data-name="Path 2720"/><path d="M349.704 756.313a.772.772 0 0 0-.773-.772h-8.8a.77.77 0 0 0-.772.772v.713a.77.77 0 0 0 .477.713.77.77 0 0 0 .295.059h8.8a.772.772 0 0 0 .773-.772v-.713Z" fill="#b6b7b7" fill-rule="evenodd" data-name="Path 2721"/><path d="M334.129 760.681a.13.13 0 0 0 .092-.039l2.817-1.626-.004-.005a.128.128 0 0 0 .066-.11.137.137 0 0 0-.022-.07.127.127 0 0 0-.055-.048l.001-.002-2.805-1.62a.13.13 0 0 0-.138-.027.129.129 0 0 0-.08.115v3.304c-.002.017.002.033.008.049a.13.13 0 0 0 .12.08Z" fill="#b6b7b7" fill-rule="evenodd" data-name="Path 2722"/></g></svg>