<svg xmlns="http://www.w3.org/2000/svg" width="16.217" height="15.805" viewBox="83 751 16.217 15.805"><g data-name="002-shopping-bag"><path d="m99.214 766.277-1.172-10.484a.475.475 0 0 0-.472-.422H84.646a.475.475 0 0 0-.472.422l-1.17 10.484a.475.475 0 0 0 .471.528h15.267a.475.475 0 0 0 .472-.528Z" fill="#b6b7b7" fill-rule="evenodd" data-name="Path 4245"/><path d="m99.214 766.277-1.172-10.484a.475.475 0 0 0-.472-.422h-6.461v11.434h7.633a.475.475 0 0 0 .472-.528Z" fill="#b6b7b7" fill-rule="evenodd" data-name="Path 4246"/><path d="M87.102 757.757a.95.95 0 1 1 0 .1z" fill="#b6b7b7" fill-rule="evenodd" data-name="Ellipse 14"/><path d="M93.215 757.757a.95.95 0 1 1 0 .1z" fill="#b6b7b7" fill-rule="evenodd" data-name="Ellipse 15"/><g data-name="Group 2273"><path d="M94.165 758.174a.475.475 0 0 1-.475-.475v-3.167a2.584 2.584 0 0 0-2.581-2.582 2.584 2.584 0 0 0-2.582 2.582v3.167a.475.475 0 0 1-.95 0v-3.167A3.536 3.536 0 0 1 91.109 751a3.536 3.536 0 0 1 3.531 3.532v3.167a.475.475 0 0 1-.475.475Z" fill="#b6b7b7" fill-rule="evenodd" data-name="Path 4247"/></g><path d="M91.109 751v.95a2.584 2.584 0 0 1 2.581 2.582v3.167a.475.475 0 0 0 .95 0v-3.167A3.536 3.536 0 0 0 91.11 751Z" fill="#b6b7b7" fill-rule="evenodd" data-name="Path 4248"/></g></svg>